<?xml version="1.0" encoding="UTF-8"?>
<svg xmlns="http://www.w3.org/2000/svg" width="1402" height="128" viewBox="0 0 1402 128" fill="none">
  <path d="M103.584 102.188C93.6068 116.256 77.2724 125.565 57.3462 125.565C25.7322 125.565 0.0476074 98.1175 0.0476074 64.1147C0.0476074 30.1118 25.4186 2.33485 59.0566 2.33485C76.9588 2.33485 90.9841 9.84779 99.3651 19.4859V38.1336C89.8724 24.9036 75.2484 16.4029 59.0566 16.4029C33.8281 16.4029 14.3865 37.1758 14.3865 64.1446C14.3865 91.1134 33.543 111.707 57.9733 111.707C71.9986 111.707 82.09 106.469 89.4163 97.9679V71.8072H57.3462L60.938 58.9065H103.584V102.218V102.188Z" fill="black"></path>
  <path d="M154.155 123.59H139.845V4.25032H167.867C191.385 4.25032 208.66 16.8517 208.66 39.2409C208.66 56.5716 198.227 67.856 182.662 72.1063L222.372 123.59H205.41L167.268 73.9023H154.184V123.59H154.155ZM154.155 61.6301H167.696C183.118 61.6301 194.008 53.7879 194.008 39.2409C194.008 24.6939 183.118 16.8517 167.696 16.8517H154.155V61.6301Z" fill="black"></path>
  <path d="M353.731 63.935C353.731 97.9379 328.046 125.565 296.118 125.565C264.191 125.565 238.506 97.9379 238.506 63.935C238.506 29.9322 264.191 2.30485 296.118 2.30485C328.046 2.30485 353.731 29.9322 353.731 63.935ZM252.845 63.935C252.845 90.7542 272.144 111.497 296.118 111.497C320.093 111.497 339.392 90.7243 339.392 63.935C339.392 37.1458 320.093 16.373 296.118 16.373C272.144 16.373 252.845 37.1458 252.845 63.935Z" fill="black"></path>
  <path d="M423.629 112.155C440.59 112.155 452.592 99.5541 452.592 76.8356V4.25032H466.902V77.1649C466.902 107.576 447.746 125.565 423.629 125.565C399.512 125.565 380.356 107.576 380.356 77.1649V4.25032H394.666V76.8356C394.666 99.5541 406.667 112.155 423.629 112.155Z" fill="black"></path>
  <path d="M583.666 4.28028H597.834V127.69L515.022 36.158V123.619H500.854V0.209518L583.666 91.7418V4.28028Z" fill="black"></path>
  <path d="M668.987 4.28024C701.2 4.28024 727.055 29.9321 727.055 63.9349C727.055 97.9378 701.2 123.59 668.987 123.59H637.373V4.25032H668.987V4.28024ZM651.712 17.0313V110.868H668.217C693.902 110.868 712.745 90.0955 712.745 63.9648C712.745 37.8341 693.902 17.0612 668.217 17.0612H651.712V17.0313Z" fill="black"></path>
  <path d="M785.123 112.485C798.835 112.485 808.784 105.122 808.784 92.6998C808.784 83.5406 803.652 78.961 794.302 73.9024L775.317 63.935C763.629 57.7092 753.367 50.5255 753.367 34.5118C753.367 15.3852 768.162 2.30485 787.917 2.30485C800.374 2.30485 811.121 7.87224 818.105 14.3974V30.5907C809.382 21.6111 798.806 15.3852 787.432 15.3852C776.058 15.3852 767.05 22.09 767.05 33.524C767.05 42.354 773.578 46.754 781.531 51.1839L799.747 60.6724C814.542 68.365 822.467 75.8779 822.467 91.5623C822.467 112.335 805.819 125.565 784.781 125.565C770.756 125.565 758.156 119.669 751.143 113.473V97.1297C760.636 106.289 772.637 112.485 785.095 112.485H785.123Z" fill="black"></path>
  <path d="M855.307 4.28027H922.555V17.0314H869.475V56.422H918.193V69.173H869.475V110.868H923.039V123.619H855.307V4.28027Z" fill="black"></path>
  <path d="M957.133 4.28027H1024.38V17.0314H971.301V56.422H1020.02V69.173H971.301V110.868H1024.86V123.619H957.133V4.28027Z" fill="black"></path>
  <path d="M1088.52 112.485C1102.23 112.485 1112.18 105.122 1112.18 92.6998C1112.18 83.5406 1107.05 78.961 1097.7 73.9024L1078.71 63.935C1067.03 57.7092 1056.76 50.5255 1056.76 34.5118C1056.76 15.3852 1071.56 2.30485 1091.31 2.30485C1103.77 2.30485 1114.52 7.87224 1121.5 14.3974V30.5907C1112.78 21.6111 1102.2 15.3852 1090.83 15.3852C1079.45 15.3852 1070.45 22.09 1070.45 33.524C1070.45 42.354 1076.97 46.754 1084.93 51.1839L1103.14 60.6724C1117.94 68.365 1125.86 75.8779 1125.86 91.5623C1125.86 112.335 1109.22 125.565 1088.18 125.565C1074.15 125.565 1061.55 119.669 1054.54 113.473V97.1297C1064.03 106.289 1076.03 112.485 1088.49 112.485H1088.52Z" fill="black"></path>
  <path d="M1248.24 123.59H1232.99L1219 91.0534H1167.31L1153.29 123.59H1138.18L1193.14 0L1248.24 123.59ZM1172.59 78.9608H1213.69L1193.14 31.2191L1172.59 78.9608Z" fill="black"></path>
  <path d="M1292.46 127.84L1247.47 4.25045H1263.04L1293.09 90.3949L1325.01 0.808235L1356.94 90.3949L1386.84 4.25045H1401.95L1356.97 127.84L1324.76 38.2533L1292.54 127.84H1292.46Z" fill="black"></path>
</svg>
